<svg xmlns="http://www.w3.org/2000/svg" xmlns:xlink="http://www.w3.org/1999/xlink" contentStyleType="text/css" data-diagram-type="ACTIVITY" height="520px" preserveAspectRatio="none" style="width:1078px;height:520px;background:#FFFFFF;" version="1.1" viewBox="0 0 1078 520" width="1078px" zoomAndPan="magnify"><?plantuml 1.2026.6?><defs/><g><rect fill="#FFFFCC" height="16.6406" rx="2.5" ry="2.5" style="stroke:#FFDD88;stroke-width:3;" width="1047.6455" x="13" y="13"/><text fill="#000000" font-family="monospace" font-size="10" lengthAdjust="spacing" textLength="355.21" x="20" y="23.6406">Please&#160;use&#160;'!option&#160;handwritten&#160;true'&#160;to&#160;enable&#160;handwritten</text><ellipse cx="518.6812" cy="46.6406" fill="#222222" rx="10" ry="10" style="stroke:#222222;stroke-width:1;"/><rect fill="#FFFFFF" height="33.9688" rx="12.5" ry="12.5" style="stroke:#1E293B;stroke-width:0.5;" width="231.7402" x="402.811" y="76.6406"/><text fill="#0F172A" font-family="Arial" font-size="12" lengthAdjust="spacing" textLength="211.7402" x="412.811" y="97.7793">Paciente con Arritmia en Urgencias</text><polygon fill="#FFFFFF" points="344.1245,130.6094,693.2378,130.6094,705.2378,144.5781,693.2378,158.5469,344.1245,158.5469,332.1245,144.5781,344.1245,130.6094" style="stroke:#1E293B;stroke-width:0.5;stroke-linejoin:miter;stroke-miterlimit:10;"/><text fill="#0F172A" font-family="Arial" font-size="12" lengthAdjust="spacing" textLength="240.5859" x="344.1245" y="141.748">&#191;Presenta Inestabilidad Hemodin&#225;mica?</text><text fill="#0F172A" font-family="Arial" font-size="12" lengthAdjust="spacing" textLength="349.1133" x="344.1245" y="155.7168">(Hipotensi&#243;n, Choque, Angina, Edema Pulmonar, S&#237;ncope)</text><text fill="#000000" font-family="Arial" font-size="12" lengthAdjust="spacing" textLength="78.2871" x="253.8374" y="141.748">S&#205; - Inestable</text><text fill="#000000" font-family="Arial" font-size="12" lengthAdjust="spacing" textLength="74.6074" x="705.2378" y="141.748">NO - Estable</text><rect fill="none" height="101.9063" style="stroke:#000000;stroke-width:1.5;" width="461.5996" x="16" y="168.5469"/><path d="M76.5898,168.5469 L76.5898,175.5156 L66.5898,185.5156 L16,185.5156" fill="none" style="stroke:#000000;stroke-width:1.5;"/><text fill="#000000" font-family="Arial" font-size="12" lengthAdjust="spacing" textLength="11.4492" x="19" y="180.6855">1.</text><text fill="#000000" font-family="Arial" font-size="12" lengthAdjust="spacing" textLength="35.3262" x="34.2637" y="180.6855">fef2f2</text><rect fill="#FFFFFF" height="47.9375" rx="12.5" ry="12.5" style="stroke:#1E293B;stroke-width:0.5;" width="441.5996" x="26" y="202.5156"/><text fill="#0F172A" font-family="Arial" font-size="12" lengthAdjust="spacing" textLength="421.5996" x="36" y="223.6543">CARDIOVERSI&#211;N EL&#201;CTRICA SINCRONIZADA INMEDIATA (Taquicardia)</text><text fill="#0F172A" font-family="Arial" font-size="12" lengthAdjust="spacing" textLength="294.6973" x="36" y="237.623">o Atropina 0.5-1mg EV / Marcapaso (Bradicardia)</text><ellipse cx="246.7998" cy="316.4531" fill="none" rx="11" ry="11" style="stroke:#222222;stroke-width:1;"/><ellipse cx="246.7998" cy="316.4531" fill="#222222" rx="6" ry="6" style="stroke:#222222;stroke-width:1;"/><rect fill="#FFFFFF" height="33.9688" rx="12.5" ry="12.5" style="stroke:#1E293B;stroke-width:0.5;" width="357.1484" x="611.9883" y="168.5469"/><text fill="#0F172A" font-family="Arial" font-size="12" lengthAdjust="spacing" textLength="337.1484" x="621.9883" y="189.6855">Tomar ECG de 12 derivaciones y evaluar ancho del QRS</text><polygon fill="#FFFFFF" points="663.2031,237.5156,917.9219,237.5156,929.9219,249.5156,917.9219,261.5156,663.2031,261.5156,651.2031,249.5156,663.2031,237.5156" style="stroke:#1E293B;stroke-width:0.5;stroke-linejoin:miter;stroke-miterlimit:10;"/><text fill="#0F172A" font-family="Arial" font-size="12" lengthAdjust="spacing" textLength="254.7188" x="663.2031" y="253.6699">&#191;QRS Angosto &lt; 0.12s o Ancho &gt;= 0.12s?</text><text fill="#000000" font-family="Arial" font-size="12" lengthAdjust="spacing" textLength="78.2871" x="572.916" y="246.6855">QRS Angosto</text><text fill="#000000" font-family="Arial" font-size="12" lengthAdjust="spacing" textLength="66.5742" x="929.9219" y="246.6855">QRS Ancho</text><rect fill="#FFFFFF" height="33.9688" rx="12.5" ry="12.5" style="stroke:#1E293B;stroke-width:0.5;" width="267.207" x="507.5996" y="271.5156"/><text fill="#0F172A" font-family="Arial" font-size="12" lengthAdjust="spacing" textLength="247.207" x="517.5996" y="292.6543">Maniobras Vagales (Valsalva modificada)</text><rect fill="#FFFFFF" height="33.9688" rx="12.5" ry="12.5" style="stroke:#1E293B;stroke-width:0.5;" width="204.5234" x="538.9414" y="340.4844"/><text fill="#0F172A" font-family="Arial" font-size="12" lengthAdjust="spacing" textLength="184.5234" x="548.9414" y="361.623">Adenosina 6mg EV bolo r&#225;pido</text><rect fill="#FFFFFF" height="33.9688" rx="12.5" ry="12.5" style="stroke:#1E293B;stroke-width:0.5;" width="196.0391" x="543.1836" y="394.4531"/><text fill="#0F172A" font-family="Arial" font-size="12" lengthAdjust="spacing" textLength="176.0391" x="553.1836" y="415.5918">Betabloqueador / Verapamilo</text><rect fill="#FFFFFF" height="33.9688" rx="12.5" ry="12.5" style="stroke:#1E293B;stroke-width:0.5;" width="237.4473" x="821.1982" y="271.5156"/><text fill="#0F172A" font-family="Arial" font-size="12" lengthAdjust="spacing" textLength="217.4473" x="831.1982" y="292.6543">Tratar como Taquicardia Ventricular</text><rect fill="#FFFFFF" height="33.9688" rx="12.5" ry="12.5" style="stroke:#1E293B;stroke-width:0.5;" width="222.7402" x="828.5518" y="340.4844"/><text fill="#0F172A" font-family="Arial" font-size="12" lengthAdjust="spacing" textLength="202.7402" x="838.5518" y="361.623">Amiodarona 150mg EV en 10 min</text><polygon fill="#FFFFFF" points="790.5625,434.4219,802.5625,446.4219,790.5625,458.4219,778.5625,446.4219,790.5625,434.4219" style="stroke:#1E293B;stroke-width:0.5;stroke-linejoin:miter;stroke-miterlimit:10;"/><ellipse cx="518.6812" cy="489.4219" fill="none" rx="11" ry="11" style="stroke:#222222;stroke-width:1;"/><ellipse cx="518.6812" cy="489.4219" fill="#222222" rx="6" ry="6" style="stroke:#222222;stroke-width:1;"/><line style="stroke:#181818;stroke-width:1;" x1="518.6812" x2="518.6812" y1="56.6406" y2="76.6406"/><polygon fill="#181818" points="514.6812,66.6406,518.6812,76.6406,522.6812,66.6406,518.6812,70.6406" style="stroke:#181818;stroke-width:1;stroke-linejoin:miter;stroke-miterlimit:10;"/><line style="stroke:#181818;stroke-width:1;" x1="246.7998" x2="246.7998" y1="250.4531" y2="305.4531"/><polygon fill="#181818" points="242.7998,295.4531,246.7998,305.4531,250.7998,295.4531,246.7998,299.4531" style="stroke:#181818;stroke-width:1;stroke-linejoin:miter;stroke-miterlimit:10;"/><line style="stroke:#181818;stroke-width:1;" x1="641.2031" x2="641.2031" y1="305.4844" y2="340.4844"/><polygon fill="#181818" points="637.2031,330.4844,641.2031,340.4844,645.2031,330.4844,641.2031,334.4844" style="stroke:#181818;stroke-width:1;stroke-linejoin:miter;stroke-miterlimit:10;"/><line style="stroke:#181818;stroke-width:1;" x1="641.2031" x2="641.2031" y1="374.4531" y2="394.4531"/><polygon fill="#181818" points="637.2031,384.4531,641.2031,394.4531,645.2031,384.4531,641.2031,388.4531" style="stroke:#181818;stroke-width:1;stroke-linejoin:miter;stroke-miterlimit:10;"/><line style="stroke:#181818;stroke-width:1;" x1="939.9219" x2="939.9219" y1="305.4844" y2="340.4844"/><polygon fill="#181818" points="935.9219,330.4844,939.9219,340.4844,943.9219,330.4844,939.9219,334.4844" style="stroke:#181818;stroke-width:1;stroke-linejoin:miter;stroke-miterlimit:10;"/><line style="stroke:#181818;stroke-width:1;" x1="651.2031" x2="641.2031" y1="249.5156" y2="249.5156"/><line style="stroke:#181818;stroke-width:1;" x1="641.2031" x2="641.2031" y1="249.5156" y2="271.5156"/><polygon fill="#181818" points="637.2031,261.5156,641.2031,271.5156,645.2031,261.5156,641.2031,265.5156" style="stroke:#181818;stroke-width:1;stroke-linejoin:miter;stroke-miterlimit:10;"/><line style="stroke:#181818;stroke-width:1;" x1="929.9219" x2="939.9219" y1="249.5156" y2="249.5156"/><line style="stroke:#181818;stroke-width:1;" x1="939.9219" x2="939.9219" y1="249.5156" y2="271.5156"/><polygon fill="#181818" points="935.9219,261.5156,939.9219,271.5156,943.9219,261.5156,939.9219,265.5156" style="stroke:#181818;stroke-width:1;stroke-linejoin:miter;stroke-miterlimit:10;"/><line style="stroke:#181818;stroke-width:1;" x1="641.2031" x2="641.2031" y1="428.4219" y2="446.4219"/><line style="stroke:#181818;stroke-width:1;" x1="641.2031" x2="778.5625" y1="446.4219" y2="446.4219"/><polygon fill="#181818" points="768.5625,442.4219,778.5625,446.4219,768.5625,450.4219,772.5625,446.4219" style="stroke:#181818;stroke-width:1;stroke-linejoin:miter;stroke-miterlimit:10;"/><line style="stroke:#181818;stroke-width:1;" x1="939.9219" x2="939.9219" y1="374.4531" y2="446.4219"/><line style="stroke:#181818;stroke-width:1;" x1="939.9219" x2="802.5625" y1="446.4219" y2="446.4219"/><polygon fill="#181818" points="812.5625,442.4219,802.5625,446.4219,812.5625,450.4219,808.5625,446.4219" style="stroke:#181818;stroke-width:1;stroke-linejoin:miter;stroke-miterlimit:10;"/><line style="stroke:#181818;stroke-width:1;" x1="790.5625" x2="790.5625" y1="202.5156" y2="237.5156"/><polygon fill="#181818" points="786.5625,227.5156,790.5625,237.5156,794.5625,227.5156,790.5625,231.5156" style="stroke:#181818;stroke-width:1;stroke-linejoin:miter;stroke-miterlimit:10;"/><line style="stroke:#181818;stroke-width:1;" x1="332.1245" x2="246.7998" y1="144.5781" y2="144.5781"/><line style="stroke:#181818;stroke-width:1;" x1="246.7998" x2="246.7998" y1="144.5781" y2="202.5156"/><polygon fill="#181818" points="242.7998,192.5156,246.7998,202.5156,250.7998,192.5156,246.7998,196.5156" style="stroke:#181818;stroke-width:1;stroke-linejoin:miter;stroke-miterlimit:10;"/><line style="stroke:#181818;stroke-width:1;" x1="705.2378" x2="790.5625" y1="144.5781" y2="144.5781"/><line style="stroke:#181818;stroke-width:1;" x1="790.5625" x2="790.5625" y1="144.5781" y2="168.5469"/><polygon fill="#181818" points="786.5625,158.5469,790.5625,168.5469,794.5625,158.5469,790.5625,162.5469" style="stroke:#181818;stroke-width:1;stroke-linejoin:miter;stroke-miterlimit:10;"/><line style="stroke:#181818;stroke-width:1;" x1="790.5625" x2="790.5625" y1="458.4219" y2="463.4219"/><line style="stroke:#181818;stroke-width:1;" x1="790.5625" x2="518.6812" y1="463.4219" y2="463.4219"/><line style="stroke:#181818;stroke-width:1;" x1="518.6812" x2="518.6812" y1="463.4219" y2="478.4219"/><polygon fill="#181818" points="514.6812,468.4219,518.6812,478.4219,522.6812,468.4219,518.6812,472.4219" style="stroke:#181818;stroke-width:1;stroke-linejoin:miter;stroke-miterlimit:10;"/><line style="stroke:#181818;stroke-width:1;" x1="518.6812" x2="518.6812" y1="110.6094" y2="130.6094"/><polygon fill="#181818" points="514.6812,120.6094,518.6812,130.6094,522.6812,120.6094,518.6812,124.6094" style="stroke:#181818;stroke-width:1;stroke-linejoin:miter;stroke-miterlimit:10;"/><?plantuml-src XLFDRjD04BxxAKRjnP5IY5srG0jKRXAe9PAK9EJ0RU9T9wFQE-bwdQeW7e039vwW3y291q0YByOuJagaLgebh-ITR_tzp6nnHMQ15dEOer4tbfpJ1bBC2kqLzxKf9bSpowLHRSxOmdwwVdOGFJQSp2td-i7XOewARyZC7bIKJh7Ct3ishezoChA4sUFr4NtH48GxnIXnj2HtU_wajdiaMwNj1XNeyDNXz15KnRR1jDBWHOWxc8vEg20sJtFU8tSvmwFZGprz1BN36UX3V8cULpYqpZkvn8IqSHeIDfAFz2Sd16dH9plJ9Y4iJZrAmV_xvzBgGf08iT5oU4ePALHmeNDMP5PtEILuvlaNj61fSK6htwO9xJbVbxe9aPcHmIPqbSuHBiiiPuEs2QFLBvFmGZSQuER2wezMF-1WIv7fXWSWLXmvSG5x-wbEmpJSWw-o3t3IZeQTU33f3aVnwcSVkXzMtzlZOToEO1JtsyD1F_uSTIA8-xrk9ux64VXZl2v5g5M43OyXSfONeWnQpuuEWdm6tGayXnxQ11TOCFZd5jKMVogat-Gj72yyBQC6VdyWQhl_jPwCEKSBtVPx6IwP9rajBILZ5aTm2tg9MIa0DCcSfPZ1n-6e-c-TiNnKKR4mm6lH58G5YCWr-EsRUkDi6zKEk577qKD3FBLOm0Hdc0cZFv4hWTaIeUfIAavKxKFGaTA6YyhySMryAXC2TdMt8CKRpBckh5Kzb3jc9Pg9jf9CJjaQKOTG2n6D6nbZYp9SCb4vmqxUSjOuIqcPeTrAo8aLMfa528vQjGgn5hGW9xCcCABQgzSgzdy0?></g></svg>